<svg xmlns="http://www.w3.org/2000/svg" xmlns:xlink="http://www.w3.org/1999/xlink" width="135px" height="38px" viewBox="0 0 135 38"><title>La-Cigale_logo_red</title><g id="&#x1FA84;Design-Style-Guide" stroke="none" stroke-width="1" fill="none" fill-rule="evenodd"><g id="DSG_003_Icons" transform="translate(-479.000000, -992.000000)" fill="#E40D0D" fill-rule="nonzero"><g id="Group-3" transform="translate(128.000000, 722.000000)"><g id="logo" transform="translate(0.000000, 105.000000)"><g id="La-Cigale_logo_red" transform="translate(351.000000, 165.000000)"><path d="M4.2083523,1.89489163 L0,1.89489163 L0,37.2994458 L7.57503415,37.2994458 L7.57503415,33.0608724 L4.2083523,33.0608724 L4.2083523,1.89489163 Z M9.40690515,37.2994458 L13.6152575,37.2994458 L14.4074179,32.6120823 L18.9623404,32.6120823 L19.7545008,37.2994458 L23.9628531,37.2994458 L16.7343892,0 L9.40690515,37.2994458 Z M15.1995783,28.3236433 L16.7343892,19.1982442 L18.31871,28.3236433 L15.1995783,28.3236433 Z M114.813753,1.89489163 L110.605401,1.89489163 L110.605401,37.2994458 L119.814266,37.2994458 L119.814266,33.0608724 L114.813753,33.0608724 L114.813753,1.89489163 L114.813753,1.89489163 Z M86.3454873,37.2994458 L90.7518797,37.2994458 L91.9896304,32.6120823 L101.396536,32.6120823 L102.634286,37.2994458 L107.040679,37.2994458 L96.6435729,0.0498655693 L86.3454873,37.2994458 Z M93.177871,28.3236433 L96.742593,15.0594019 L100.307315,28.3236433 L93.177871,28.3236433 L93.177871,28.3236433 Z M134.914824,6.13346502 L134.914824,1.89489163 L124.022618,1.89489163 L124.022618,37.2994458 L134.914824,37.2994458 L134.914824,33.0608724 L128.23097,33.0608724 L128.23097,23.2872209 L134.914824,23.2872209 L134.914824,19.0486475 L128.23097,19.0486475 L128.23097,6.13346502 L134.914824,6.13346502 Z M43.1232336,37.2994458 L47.3315859,37.2994458 L47.3315859,1.89489163 L43.1232336,1.89489163 L43.1232336,37.2994458 Z M69.2150179,19.0486475 L69.2150179,23.2872209 L82.0381149,23.2872209 C80.255754,29.0217613 74.908671,33.2603347 68.6208976,33.2603347 C60.8478233,33.2603347 54.5600499,26.9274074 54.5600499,19.1483786 C54.5600499,11.3693498 60.8478233,5.0364225 68.6208976,5.0364225 C72.8292499,5.0364225 76.7900521,6.88144856 79.4635935,10.1725761 L82.6817453,7.52970096 C79.2160434,3.29112757 74.0670006,0.897580247 68.6208976,0.897580247 C58.5703621,0.897580247 50.4012076,9.07553361 50.4012076,19.1483786 C50.4012076,29.2212236 58.5703621,37.399177 68.6208976,37.399177 C78.6714331,37.399177 86.8405876,29.1214925 86.8405876,19.0486475 L69.2150179,19.0486475 L69.2150179,19.0486475 Z M28.9633659,19.1483786 C28.9633659,29.3708203 33.5677984,37.399177 39.4594916,37.399177 L39.4594916,33.2603347 C35.7957496,33.2603347 33.0726981,25.8303649 33.0726981,19.1483786 C33.0726981,12.5162579 35.7957496,5.0364225 39.4594916,5.0364225 L39.4594916,0.897580247 C33.5677984,0.897580247 28.9633659,8.9259369 28.9633659,19.1483786 Z" id="Shape"></path></g></g></g></g></g></svg>